<?xml version="1.0" standalone="no"?>
<!DOCTYPE svg PUBLIC "-//W3C//DTD SVG 20010904//EN"
 "http://www.w3.org/TR/2001/REC-SVG-20010904/DTD/svg10.dtd">
<svg version="1.0" xmlns="http://www.w3.org/2000/svg"
 width="200.000000pt" height="200.000000pt" viewBox="0 0 200.000000 200.000000"
 preserveAspectRatio="xMidYMid meet">
<metadata>
Created by potrace 1.11, written by Peter Selinger 2001-2013
</metadata>
<g transform="translate(0.000000,200.000000) scale(0.100000,-0.100000)"
fill="#000000" stroke="none">
<path d="M829 1896 c-2 -2 -4 -127 -4 -278 l1 -273 84 -3 c139 -5 125 -35 123
275 -1 147 -2 271 -2 276 -1 7 -194 10 -202 3z"/>
<path d="M600 1793 c4 -21 11 -75 15 -119 13 -170 40 -244 110 -306 27 -24 31
-25 37 -10 22 56 3 172 -44 267 -37 74 -115 205 -123 205 -1 0 1 -17 5 -37z"/>
<path d="M200 1482 c30 -16 75 -40 100 -55 25 -15 83 -46 130 -70 83 -41 86
-42 187 -42 56 0 105 4 109 8 13 12 -67 86 -121 112 -89 44 -157 56 -375 70
l-85 5 55 -28z"/>
<path d="M715 1301 c-37 -9 -53 -18 -92 -52 -29 -24 -123 -141 -123 -152 0 -3
37 15 83 39 85 46 138 95 156 145 5 16 9 29 8 28 -1 -1 -16 -4 -32 -8z"/>
<path d="M829 1276 c-2 -2 -4 -127 -4 -278 l1 -273 93 -3 c51 -1 98 2 105 7 8
7 11 85 9 273 -1 144 -2 266 -2 271 -1 7 -194 10 -202 3z"/>
<path d="M1163 1218 c-6 -8 -7 -40 -3 -78 7 -71 4 -360 -4 -399 -10 -43 9 -52
106 -50 99 1 109 9 101 74 -5 46 -4 387 1 414 9 42 -9 51 -104 51 -58 0 -91
-4 -97 -12z"/>
<path d="M1472 971 c-76 -127 -106 -234 -86 -308 9 -32 37 -15 75 45 41 65 47
89 65 285 3 37 4 67 3 67 -2 0 -28 -40 -57 -89z"/>
<path d="M1605 733 c-73 -15 -136 -46 -169 -82 -11 -12 -16 -24 -12 -29 4 -4
43 -7 86 -7 77 0 80 1 211 68 l133 68 -89 -2 c-50 -1 -121 -8 -160 -16z"/>
<path d="M829 656 c-2 -2 -4 -127 -3 -278 l0 -273 102 -3 c56 -1 102 1 103 5
1 11 1 525 0 541 -1 9 -28 12 -99 12 -54 0 -101 -2 -103 -4z"/>
<path d="M1160 620 c-4 -8 -5 -24 -3 -35 7 -30 7 -396 0 -429 -10 -48 5 -56
104 -56 96 0 114 10 103 61 -7 32 -7 364 -1 410 9 58 -1 64 -103 64 -72 1 -93
-3 -100 -15z"/>
<path d="M1424 579 c14 -73 88 -138 259 -228 l78 -42 -43 62 c-94 135 -173
204 -262 228 l-38 10 6 -30z"/>
</g>
</svg>
